# xmcd
#
# Track frame offsets:
#	150
#	19198
#	35723
#	60052
#	78144
#	99498
#	119080
#	136582
#	159960
#	177865
#	206766
#
# Disc length: 3125 seconds
#
# Revision: 10
# Processed by: cddbd v1.5.1PL0 Copyright (c) Steve Scherf et al.
# Submitted via: MusicWizard 7.0.2
#
DISCID=830c330b
DTITLE=MARIUS MÜLLER-WESTERNHAGEN - SO WEIT... [CD 2/2)
DYEAR=2000
DGENRE=Liedermacher
TTITLE0=NUR EIN TRAUM
TTITLE1=ROSAMUNDE
TTITLE2=TAXIMANN
TTITLE3=TANZ MIT DEM TEUFEL
TTITLE4=SUPERMANN
TTITLE5=WIR WAREN NOCH KINDER
TTITLE6=KRIEG
TTITLE7=GANZ UND GAR
TTITLE8=LADYKILLER
TTITLE9=KEIN GEFÜHL (AFFENTHEATER-SESSION)
TTITLE10=DURCH DEINE LIEBE
EXTD=YEAR: 2000
EXTT0=
EXTT1=
EXTT2=
EXTT3=
EXTT4=
EXTT5=
EXTT6=
EXTT7=
EXTT8=
EXTT9=
EXTT10=
PLAYORDER=
